<?xml version="1.0" encoding="iso-8859-1"?>
<!-- Generator: Adobe Illustrator 19.0.0, SVG Export Plug-In . SVG Version: 6.00 Build 0)  -->
<svg version="1.1" id="Layer_1" xmlns="http://www.w3.org/2000/svg" xmlns:xlink="http://www.w3.org/1999/xlink" x="0px" y="0px"
	 viewBox="0 0 601.994 601.994" style="enable-background:new 0 0 601.994 601.994;" xml:space="preserve">
<g id="XMLID_1742_">
	<g id="XMLID_444_">
		<rect x="75.249" y="75.253" style="fill:#B61351;" width="451.495" height="451.495"/>
	</g>
	<g id="XMLID_1082_">
		<rect x="112.874" y="112.878" style="fill:#DBD4C4;" width="376.246" height="376.246"/>
	</g>
	<g id="XMLID_527_">
		<rect x="395.058" y="225.751" style="fill:#88113F;" width="56.437" height="150.498"/>
	</g>
	<g id="XMLID_504_">
		<rect x="112.874" y="112.878" style="fill:#C4B99F;" width="141.092" height="376.246"/>
	</g>
	<g id="XMLID_505_">
		<rect x="206.935" y="206.939" style="fill:#FFFFFF;" width="188.123" height="188.123"/>
	</g>
	<g id="XMLID_203_">
		<path style="fill:#222221;" d="M498.296,498.3H103.697V103.7h394.599V498.3z M122.051,479.947h357.892V122.054H122.051V479.947z"
			/>
	</g>
	<path style="fill:#222221;" d="M601.993,122.047v-18.354H535.92V66.076H498.3V0.001h-18.354v66.076h-56.895V0.001h-18.354v66.076
		h-56.895V0.001h-18.354v66.076h-56.895V0.001h-18.354v66.076h-56.895V0.001H178.95v66.076h-56.903V0.001h-18.354v66.076H66.072
		v37.617H0v18.354h66.072v56.902H0v18.354h66.072v56.895H0v18.354h66.072v56.897H0v18.354h66.072v56.895H0v18.354h66.072v56.895H0
		V498.3h66.072v37.624h37.621v66.069h18.354v-66.069h56.903v66.069h18.354v-66.069h56.895v66.069h18.354v-66.069h56.895v66.069
		h18.354v-66.069h56.895v66.069h18.354v-66.069h56.895v66.069H498.3v-66.069h37.621V498.3h66.073v-18.354h-66.073v-56.895h66.073
		v-18.354h-66.073v-56.895h66.073v-18.354h-66.073v-56.897h66.073v-18.354h-66.073v-56.895h66.073v-18.354h-66.073v-56.902h66.072
		V122.047z M517.567,517.57H84.426V84.43h433.141V517.57z"/>
	<path style="fill:#222221;" d="M460.672,216.574h-56.436v-18.813H197.758v206.477h206.477v-18.813h56.436V216.574H460.672z
		 M385.881,385.885H216.112v-169.77h169.769L385.881,385.885L385.881,385.885z M442.318,367.073h-38.083V234.928h38.083V367.073z"/>
	<g id="XMLID_245_">
		<rect x="235.153" y="235.387" style="fill:#222221;" width="131.686" height="18.354"/>
	</g>
	<g id="XMLID_246_">
		<rect x="235.153" y="273.011" style="fill:#222221;" width="131.686" height="18.354"/>
	</g>
	<g id="XMLID_248_">
		<rect x="268.075" y="348.26" style="fill:#222221;" width="65.843" height="18.354"/>
	</g>
	<g id="XMLID_249_">
		<rect x="414.1" y="253.97" style="fill:#FFFFFF;" width="18.354" height="18.811"/>
	</g>
	<g id="XMLID_250_">
		<rect x="414.1" y="291.594" style="fill:#FFFFFF;" width="18.354" height="18.813"/>
	</g>
	<g id="XMLID_251_">
		<rect x="414.1" y="329.219" style="fill:#FFFFFF;" width="18.354" height="18.811"/>
	</g>
	<g id="XMLID_247_">
		<rect x="235.153" y="310.636" style="fill:#222221;" width="18.813" height="18.354"/>
	</g>
	<g id="XMLID_252_">
		<rect x="272.778" y="310.636" style="fill:#222221;" width="18.812" height="18.354"/>
	</g>
	<g id="XMLID_253_">
		<rect x="310.403" y="310.636" style="fill:#222221;" width="18.812" height="18.354"/>
	</g>
	<g id="XMLID_254_">
		<rect x="348.027" y="310.636" style="fill:#222221;" width="18.812" height="18.354"/>
	</g>
</g>
<g>
</g>
<g>
</g>
<g>
</g>
<g>
</g>
<g>
</g>
<g>
</g>
<g>
</g>
<g>
</g>
<g>
</g>
<g>
</g>
<g>
</g>
<g>
</g>
<g>
</g>
<g>
</g>
<g>
</g>
</svg>
